<mxfile host="app.diagrams.net" agent="Mozilla/5.0 (Windows NT 10.0; Win64; x64) AppleWebKit/537.36 (KHTML, like Gecko) Chrome/132.0.0.0 Safari/537.36" version="26.0.14" pages="2">
  <diagram name="Page-1" id="mQ4CjvkkJT5XYhEVmEx1">
    <mxGraphModel dx="2140" dy="522" grid="1" gridSize="10" guides="1" tooltips="1" connect="1" arrows="1" fold="1" page="1" pageScale="1" pageWidth="850" pageHeight="1100" math="0" shadow="0">
      <root>
        <mxCell id="0" />
        <mxCell id="1" parent="0" />
        <mxCell id="87rtK7_AfZ0vFBi0pIrJ-5" value="" style="edgeStyle=orthogonalEdgeStyle;rounded=0;orthogonalLoop=1;jettySize=auto;html=1;" parent="1" source="87rtK7_AfZ0vFBi0pIrJ-3" target="87rtK7_AfZ0vFBi0pIrJ-4" edge="1">
          <mxGeometry relative="1" as="geometry" />
        </mxCell>
        <mxCell id="87rtK7_AfZ0vFBi0pIrJ-29" value="" style="edgeStyle=orthogonalEdgeStyle;rounded=0;orthogonalLoop=1;jettySize=auto;html=1;" parent="1" source="87rtK7_AfZ0vFBi0pIrJ-3" target="87rtK7_AfZ0vFBi0pIrJ-28" edge="1">
          <mxGeometry relative="1" as="geometry" />
        </mxCell>
        <mxCell id="87rtK7_AfZ0vFBi0pIrJ-3" value="Extract RGB Channel from the Satellite Image" style="rounded=0;whiteSpace=wrap;html=1;" parent="1" vertex="1">
          <mxGeometry x="-50" y="40" width="120" height="60" as="geometry" />
        </mxCell>
        <mxCell id="87rtK7_AfZ0vFBi0pIrJ-7" value="" style="edgeStyle=orthogonalEdgeStyle;rounded=0;orthogonalLoop=1;jettySize=auto;html=1;" parent="1" source="87rtK7_AfZ0vFBi0pIrJ-4" target="87rtK7_AfZ0vFBi0pIrJ-6" edge="1">
          <mxGeometry relative="1" as="geometry" />
        </mxCell>
        <mxCell id="87rtK7_AfZ0vFBi0pIrJ-9" value="" style="edgeStyle=orthogonalEdgeStyle;rounded=0;orthogonalLoop=1;jettySize=auto;html=1;" parent="1" source="87rtK7_AfZ0vFBi0pIrJ-4" target="87rtK7_AfZ0vFBi0pIrJ-8" edge="1">
          <mxGeometry relative="1" as="geometry" />
        </mxCell>
        <mxCell id="87rtK7_AfZ0vFBi0pIrJ-4" value="Compute NDWI" style="rounded=0;whiteSpace=wrap;html=1;" parent="1" vertex="1">
          <mxGeometry x="-50" y="130" width="120" height="60" as="geometry" />
        </mxCell>
        <mxCell id="87rtK7_AfZ0vFBi0pIrJ-6" value="Mark as Water" style="rounded=0;whiteSpace=wrap;html=1;" parent="1" vertex="1">
          <mxGeometry x="-170" y="320" width="120" height="60" as="geometry" />
        </mxCell>
        <mxCell id="87rtK7_AfZ0vFBi0pIrJ-11" value="" style="edgeStyle=orthogonalEdgeStyle;rounded=0;orthogonalLoop=1;jettySize=auto;html=1;" parent="1" source="87rtK7_AfZ0vFBi0pIrJ-8" target="87rtK7_AfZ0vFBi0pIrJ-10" edge="1">
          <mxGeometry relative="1" as="geometry" />
        </mxCell>
        <mxCell id="87rtK7_AfZ0vFBi0pIrJ-8" value="Process to NDMI" style="rounded=0;whiteSpace=wrap;html=1;" parent="1" vertex="1">
          <mxGeometry x="70" y="320" width="120" height="60" as="geometry" />
        </mxCell>
        <mxCell id="87rtK7_AfZ0vFBi0pIrJ-13" value="" style="edgeStyle=orthogonalEdgeStyle;rounded=0;orthogonalLoop=1;jettySize=auto;html=1;" parent="1" source="87rtK7_AfZ0vFBi0pIrJ-10" target="87rtK7_AfZ0vFBi0pIrJ-12" edge="1">
          <mxGeometry relative="1" as="geometry" />
        </mxCell>
        <mxCell id="87rtK7_AfZ0vFBi0pIrJ-15" value="" style="edgeStyle=orthogonalEdgeStyle;rounded=0;orthogonalLoop=1;jettySize=auto;html=1;" parent="1" source="87rtK7_AfZ0vFBi0pIrJ-10" target="87rtK7_AfZ0vFBi0pIrJ-14" edge="1">
          <mxGeometry relative="1" as="geometry" />
        </mxCell>
        <mxCell id="87rtK7_AfZ0vFBi0pIrJ-10" value="Compute NDMI" style="rounded=0;whiteSpace=wrap;html=1;" parent="1" vertex="1">
          <mxGeometry x="70" y="460" width="120" height="60" as="geometry" />
        </mxCell>
        <mxCell id="87rtK7_AfZ0vFBi0pIrJ-12" value="Mark as Potential Recharge Spot" style="rounded=0;whiteSpace=wrap;html=1;" parent="1" vertex="1">
          <mxGeometry x="-250" y="460" width="120" height="60" as="geometry" />
        </mxCell>
        <mxCell id="87rtK7_AfZ0vFBi0pIrJ-17" value="" style="edgeStyle=orthogonalEdgeStyle;rounded=0;orthogonalLoop=1;jettySize=auto;html=1;" parent="1" source="87rtK7_AfZ0vFBi0pIrJ-14" target="87rtK7_AfZ0vFBi0pIrJ-16" edge="1">
          <mxGeometry relative="1" as="geometry" />
        </mxCell>
        <mxCell id="87rtK7_AfZ0vFBi0pIrJ-14" value="Exclude from Recharge Zone" style="rounded=0;whiteSpace=wrap;html=1;" parent="1" vertex="1">
          <mxGeometry x="365" y="520" width="120" height="60" as="geometry" />
        </mxCell>
        <mxCell id="87rtK7_AfZ0vFBi0pIrJ-19" value="" style="edgeStyle=orthogonalEdgeStyle;rounded=0;orthogonalLoop=1;jettySize=auto;html=1;" parent="1" source="87rtK7_AfZ0vFBi0pIrJ-16" target="87rtK7_AfZ0vFBi0pIrJ-18" edge="1">
          <mxGeometry relative="1" as="geometry" />
        </mxCell>
        <mxCell id="87rtK7_AfZ0vFBi0pIrJ-16" value="Remove Small Patches using Morphological Ops" style="rounded=0;whiteSpace=wrap;html=1;" parent="1" vertex="1">
          <mxGeometry x="270" y="320" width="120" height="60" as="geometry" />
        </mxCell>
        <mxCell id="87rtK7_AfZ0vFBi0pIrJ-21" value="" style="edgeStyle=orthogonalEdgeStyle;rounded=0;orthogonalLoop=1;jettySize=auto;html=1;" parent="1" source="87rtK7_AfZ0vFBi0pIrJ-18" target="87rtK7_AfZ0vFBi0pIrJ-20" edge="1">
          <mxGeometry relative="1" as="geometry" />
        </mxCell>
        <mxCell id="87rtK7_AfZ0vFBi0pIrJ-18" value="Exclude Beach and Urban Areas" style="rounded=0;whiteSpace=wrap;html=1;" parent="1" vertex="1">
          <mxGeometry x="270" y="180" width="120" height="60" as="geometry" />
        </mxCell>
        <mxCell id="87rtK7_AfZ0vFBi0pIrJ-23" value="" style="edgeStyle=orthogonalEdgeStyle;rounded=0;orthogonalLoop=1;jettySize=auto;html=1;" parent="1" source="87rtK7_AfZ0vFBi0pIrJ-20" target="87rtK7_AfZ0vFBi0pIrJ-22" edge="1">
          <mxGeometry relative="1" as="geometry" />
        </mxCell>
        <mxCell id="87rtK7_AfZ0vFBi0pIrJ-20" value="Apply Green Mask for uninhabited field (Brown patches/ Open areas)" style="rounded=0;whiteSpace=wrap;html=1;" parent="1" vertex="1">
          <mxGeometry x="270" y="40" width="120" height="60" as="geometry" />
        </mxCell>
        <mxCell id="87rtK7_AfZ0vFBi0pIrJ-22" value="Mark as Potential Recharge Spot" style="rounded=0;whiteSpace=wrap;html=1;" parent="1" vertex="1">
          <mxGeometry x="470" y="40" width="120" height="60" as="geometry" />
        </mxCell>
        <mxCell id="87rtK7_AfZ0vFBi0pIrJ-28" value="Start" style="rounded=0;whiteSpace=wrap;html=1;" parent="1" vertex="1">
          <mxGeometry x="-190" y="45" width="60" height="50" as="geometry" />
        </mxCell>
        <mxCell id="87rtK7_AfZ0vFBi0pIrJ-31" value="Higher NDWI/Water Body" style="rounded=1;whiteSpace=wrap;html=1;" parent="1" vertex="1">
          <mxGeometry x="-170" y="260" width="140" height="40" as="geometry" />
        </mxCell>
        <mxCell id="87rtK7_AfZ0vFBi0pIrJ-38" value="Lower NDWI/Non-Water Body" style="rounded=1;whiteSpace=wrap;html=1;" parent="1" vertex="1">
          <mxGeometry x="60" y="260" width="140" height="40" as="geometry" />
        </mxCell>
        <mxCell id="87rtK7_AfZ0vFBi0pIrJ-39" value="Higher NDMI/ Moisture Retaine" style="rounded=1;whiteSpace=wrap;html=1;" parent="1" vertex="1">
          <mxGeometry x="-100" y="490" width="140" height="40" as="geometry" />
        </mxCell>
        <mxCell id="87rtK7_AfZ0vFBi0pIrJ-40" value="Lower NDMI/ Dry Area" style="rounded=1;whiteSpace=wrap;html=1;" parent="1" vertex="1">
          <mxGeometry x="200" y="530" width="140" height="40" as="geometry" />
        </mxCell>
      </root>
    </mxGraphModel>
  </diagram>
  <diagram id="IXlTXxfou-sS_zqMOLHT" name="Page-2">
    <mxGraphModel grid="1" page="1" gridSize="10" guides="1" tooltips="1" connect="1" arrows="1" fold="1" pageScale="1" pageWidth="850" pageHeight="1100" math="0" shadow="0">
      <root>
        <mxCell id="0" />
        <mxCell id="1" parent="0" />
      </root>
    </mxGraphModel>
  </diagram>
</mxfile>
